<?xml version="1.0" encoding="utf-8"?>
<!-- Generator: Adobe Illustrator 15.1.0, SVG Export Plug-In . SVG Version: 6.00 Build 0)  -->
<!DOCTYPE svg PUBLIC "-//W3C//DTD SVG 1.1//EN" "http://www.w3.org/Graphics/SVG/1.1/DTD/svg11.dtd">
<svg version="1.1" id="Layer_1" xmlns="http://www.w3.org/2000/svg" xmlns:xlink="http://www.w3.org/1999/xlink" x="0px" y="0px"
	 width="1024px" height="1024px" viewBox="0 0 1024 1024" enable-background="new 0 0 1024 1024" xml:space="preserve">
<path fill="#00a39e" d="M933.859,513.12c-4.195-94.871-44.712-186.976-106.855-258.091
	c-59.06-67.586-139.391-116.839-227.002-136.906c-93.354-21.383-196.311-6.928-281.133,37.209
	c-38.054,19.802-72.78,46.735-98.969,80.899c-30.252,39.464-45.28,88.544-51.711,137.348c-3.257,24.716-3.603,49.575,1.09,74.129
	c4.472,23.402,13.675,45.731,26.671,65.667c22.339,34.271,55.631,60.156,91.272,79.453c39.92,21.613,84.035,35.481,128.68,43.134
	c0.085,0.015,0.17,0.028,0.255,0.042c-0.743,8.002-1.619,15.987-2.62,23.963c-0.578,4.159-1.197,8.313-1.876,12.457
	c-0.39,2.224-0.796,4.443-1.214,6.661c-0.189,0.899-0.376,1.8-0.562,2.701c-29.299-23.811-63.104-41.869-99.349-52.74
	c-39.027-11.704-82.268-15.198-121.665-3.305c-20.416,6.162-39.467,17.159-54.178,32.683
	c-16.685,17.606-24.671,40.669-29.902,63.894c-10.301,45.731-11.281,96.156,15.062,136.997
	c23.208,35.98,65.109,55.43,107.356,54.033c47.247-1.562,86.507-28.756,116.606-63.368c28.824-33.146,48.23-72.799,61.359-114.427
	c12.931,11.486,24.953,23.993,37.266,36.179c18.175,17.987,36.805,35.524,56.138,52.267c32.555,28.188,68.133,54.491,109.075,69.003
	c21.708,7.695,44.562,11.057,67.563,10.106c24.87-1.026,48.334-8.085,70.221-19.761c40.796-21.765,75.765-55.679,103.542-92.289
	c27.679-36.481,48.535-78.013,62.342-121.624c7.96-25.143,13.625-51.099,17.744-77.134
	C933.206,566.128,935.031,539.603,933.859,513.12z M324.484,826.538c-28.308,24.499-65.446,38.491-103.021,36.56
	c-20.16-1.036-40.341-7.163-57.239-18.287c-17.125-11.272-30.309-27.939-39.091-46.322c-5.587-12.526-9.25-25.725-11.272-39.285
	c-0.867-5.813-1.354-11.696-1.618-17.566c-0.139-3.115-0.117-6.236-0.043-9.353c0.246-0.573,0.501-1.144,0.759-1.713
	c5.699-11.435,13.468-21.411,22.927-29.973c32.197-27.508,75.717-34.598,116.844-31.134c47.635,4.012,93.664,22.155,132.399,49.924
	c3.488,2.5,6.877,5.113,10.199,7.8C379.185,765.021,355.254,798.906,324.484,826.538z M908.287,643.813
	c-20.919,58.431-57.26,111.207-103.58,152.425c-18.371,16.038-38.255,30.326-60.18,41.114c-23.148,11.39-48.391,16.077-74.08,15.834
	c-48.501-0.457-92.453-24.069-130.25-52.626c-20-15.111-38.853-31.773-57.16-48.875c-19.072-17.814-37.025-36.745-55.914-54.737
	c-3.136-2.987-6.338-5.901-9.6-8.743c3.564-16.737,6.4-33.646,8.687-50.603c46.398,6.854,94.213,6.544,140.316-1.997
	c4.162-0.771,8.305-1.628,12.431-2.558c0,0.365,0,0.729,0,1.094c-0.065,0.788-0.191,1.851,0,2.739c0,26.34,0,52.681,0,79.021
	c0,23.504,0.524,47.078-0.026,70.574c-0.047,1.964,0.228,2.958,1.897,4.001c0.609,0.381,1.116,0.541,1.549,0.546
	c0.063,0.037,0.123,0.076,0.185,0.115c-0.025-0.036-0.044-0.083-0.068-0.121c1.602-0.095,2.132-2.5,2.894-4.558
	c3.846-10.401,5.774-22.039,7.455-32.961c0.871-5.649,0.549-11.433,0.549-17.128c0-6.479,0-12.959,0-19.438
	c0-12.461,0-24.921,0-37.381c0-13.075,0-26.149,0-39.225c53.444,5.012,98.831,43.48,121.299,91.451
	c9.325,20.959,14.616,43.521,15.799,66.423c0.177,3.413-0.042,6.873,0.241,10.273c0.136,1.616,1.852,2.681,3.288,3.137
	c3.219,1.024,7.833-23.076,8.335-25.521c1.099-5.354,2.211-10.767,2.678-16.217c0.482-5.605-0.046-11.441-0.408-17.043
	c-0.673-10.403-2.193-20.745-4.437-30.925c-4.649-21.115-13.122-41.321-24.985-59.394c-15.356-23.394-37.154-43.061-62.154-56.133
	c16.056-8.22,31.378-17.892,45.705-29.019c18.873-14.655,35.857-31.723,50.756-50.387c7.748-9.707,14.843-19.922,21.456-30.431
	c3.107-4.939,6.501-9.894,8.389-15.447c2.12-6.239,3.492-12.838,4.825-19.282c1.402-6.774,3.101-13.983,2.834-20.943
	c-0.071-1.824-3.007-5.252-4.524-3.087c-17.178,29.369-38.423,56.217-63.828,78.896c-35.999,31.353-79.066,53.023-125.268,64.585
	c0-42.07,0-84.139,0-126.212c0-24.803,0-49.606,0-74.409c0-1.587,0.583-5.063-0.437-6.516c-0.58-0.827-2.724-2.414-3.72-1.747
	c-1.426,0.953-2.138,4.217-2.639,5.736c-0.746,2.259-1.278,4.6-1.899,6.895c-1.633,6.043-2.888,12.177-4.033,18.328
	c-0.821,4.41-1.618,8.79-1.706,13.287c0,55.972,0,111.94,0,167.912c-46.56,9.528-95.198,9.776-142.15,3.47
	c-1.791-0.24-3.582-0.495-5.372-0.758c0.562-7.869,0.998-15.748,1.288-23.629c5.872,0.899,11.824,1.32,17.823,1.146
	c20.965-0.604,41.483-9.994,53.726-27.328c6.475-9.167,9.855-20.061,12.784-30.766c3.377-12.351,5.513-25.063,6.109-37.858
	c0.872-18.732-12.498-34.129-29.461-40.456c-9.68-3.61-19.764-3.889-29.459-0.145c-10.397,4.015-17.734,12.903-23.058,22.345
	c-7.054,12.511-10.522,26.615-13.83,40.474c-1.479,6.193-2.763,12.429-3.859,18.696c-1.879-0.573-3.743-1.188-5.584-1.849
	c-30.133-10.813-57.111-32.502-71.006-61.653c-6.438-14.61-9.819-30.231-10.417-46.17c-0.062-3.911,0.038-7.823,0.311-11.725
	c0.021-0.211,0.044-0.421,0.067-0.632c0.169-0.513,0.343-1.024,0.518-1.535c1.612-4.366,3.378-8.668,5.33-12.894
	c9.859-20.231,23.415-38.237,40.157-53.277c17.194-14.83,37.153-25.92,58.818-32.727c25.151-7.902,51.456-8.403,77.526-6.254
	c47.712,3.934,94.304,21.005,126.51,57.598c9.154,10.402,16.698,22.162,22.605,34.682c5.693,12.699,9.813,25.984,11.459,39.837
	c0.31,2.596-0.186,5.125,0.994,6.992c-0.046,0.006-0.092,0.01-0.139,0.002c0.082,0.051,0.163,0.102,0.245,0.152
	c0.358,0.515,0.848,0.979,1.54,1.373c0.496,0.283,0.902,0.388,1.247,0.369c0.019,0.012,0.037,0.023,0.056,0.035
	c-0.006-0.011-0.01-0.024-0.015-0.035c1.088-0.094,1.537-1.5,2.134-2.879c0.001,0,0.003,0,0.003,0
	c0.006-0.014,0.012-0.029,0.017-0.043c0,0,0-0.001,0-0.001c4.35-11.388,7.33-24.332,8.561-36.448
	c1.071-10.545-1.07-21.675-3.702-31.86c-5.357-20.747-16.123-39.874-29.729-56.308c-27.987-33.805-68.871-52.855-111.438-60.503
	c-47.978-8.62-98.922-5.03-140.773,21.753c-18.979,12.146-35.375,28.437-48.062,47.024c-13.285,19.465-21.801,41.779-27.893,64.421
	c-12.588,46.788-18.888,99.904,10.363,141.933c12.185,17.503,29.979,30.293,48.56,40.3c8.666,4.666,17.813,8.519,27.263,11.21
	c-0.137,8.164-0.137,16.332-0.237,24.489c0,0.037-0.001,0.074-0.001,0.111c-43.538-7.634-86.389-21.735-125.033-43.074
	c-39.105-21.595-73.822-52.497-94.589-92.493c-1.092-2.105-2.119-4.244-3.124-6.392c-9.949-22.283-14.91-45.785-15.933-70.119
	c-0.076-6.017,0.114-12.021,0.509-18.023c0.222-2.408,0.543-4.809,0.782-7.214c0.149-0.437,0.238-0.942,0.31-1.455
	c0.591-1.903,1.205-3.799,1.841-5.689c13.282-36.133,36.704-67.135,65.297-92.627c72.078-62.7,171.516-90.869,265.91-89.328
	c101.18,1.651,198.303,44.682,271.403,113.89c40.106,37.972,72.623,83.492,95.874,133.562
	c26.479,58.33,41.225,122.917,36.876,187.104c-0.514,0.989-0.297,3.695-0.393,4.693c-0.295,3.071-0.69,6.13-1.028,9.195
	c-0.408,2.627-0.818,5.254-1.206,7.884c-0.089,0.488-0.18,0.976-0.271,1.463c-0.237,1.125-0.472,2.253-0.698,3.382
	c-0.37,1.58-0.747,3.158-1.13,4.735c-0.49,1.817-0.99,3.631-1.504,5.441C911.302,634.736,909.829,639.284,908.287,643.813z
	 M434.704,501.101c3.511-6.092,6.945-11.637,12.111-16.479c8.337-6.807,18.703-9.669,29.392-8.598
	c12.308,1.233,22.703,8.291,28.794,18.78c-1.226,1.323-2.515,2.601-3.861,3.835c-19.122,15.886-43.999,18.586-67.46,13.704
	c0.12-3.339,0.283-6.677,0.491-10.014C434.347,501.919,434.522,501.509,434.704,501.101z M514.689,837.042
	c-0.166-0.135-0.33-0.27-0.495-0.404C514.359,836.772,514.523,836.907,514.689,837.042z M512.13,834.942
	c-1.068-0.88-2.132-1.763-3.194-2.651C509.996,833.178,511.062,834.062,512.13,834.942z M508.452,831.887
	c-0.624-0.522-1.247-1.045-1.867-1.57C507.206,830.841,507.829,831.364,508.452,831.887z"/>
</svg>
